<svg xmlns="http://www.w3.org/2000/svg" viewBox="0 0 64 64" fill="none">
  <defs>
    <linearGradient id="gold1" x1="0" y1="0" x2="1" y2="1">
      <stop offset="0%" stop-color="#FFD54F"/>
      <stop offset="100%" stop-color="#FFB300"/>
    </linearGradient>
  </defs>
  <path d="M20 12c0-4.418 3.582-8 8-8s8 3.582 8 8v4h-16v-4z" fill="url(#gold1)"/>
  <path d="M18 16h18c2.21 0 4 1.79 4 4v8c0 6.627-5.373 12-12 12s-12-5.373-12-12v-8c0-2.21 1.79-4 4-4z" fill="url(#gold1)"/>
  <path d="M16 56h32v-6h-32v6z" fill="#B8860B"/>
  <path d="M24 28h16v4h-16v-4z" fill="#F9A825" opacity="0.8"/>
  <path d="M22 10h20" stroke="#A56C00" stroke-width="2" stroke-linecap="round"/>
</svg>