<svg xmlns="http://www.w3.org/2000/svg" viewBox="0 0 64 64" fill="none">
  <defs>
    <linearGradient id="gold2" x1="0" y1="0" x2="1" y2="1">
      <stop offset="0%" stop-color="#FFE082"/>
      <stop offset="100%" stop-color="#FF8F00"/>
    </linearGradient>
  </defs>
  <path d="M22 14c0-3.314 2.686-6 6-6s6 2.686 6 6v6h-12v-6z" fill="url(#gold2)"/>
  <path d="M18 22h20c2.21 0 4 1.79 4 4v4c0 6.627-5.373 12-12 12s-12-5.373-12-12v-4c0-2.21 1.79-4 4-4z" fill="url(#gold2)"/>
  <path d="M16 54h32v-4h-32v4z" fill="#D4AF37"/>
  <path d="M24 26h16v3h-16v-3z" fill="#FBC02D" opacity="0.75"/>
  <circle cx="32" cy="20" r="2" fill="#A17400"/>
</svg>